# xmcd
#
# Track frame offsets: 
#        150
#        19262
#        36043
#        44415
#        55702
#
# Disc length: 891 seconds
#
# Revision: 0
# Processed by: cddbd v1.5.2PL0 Copyright (c) Steve Scherf et al.
# Submitted via: ExactAudioCopyFreeDBPlugin 1.0
#
DISCID=38037905
DTITLE=Z.Z. Hill - The Brand New Z.Z. Hill
DYEAR=2015
DGENRE=Soul
TTITLE0=(Home Just Ain't Home At) Suppertime (outtake)
TTITLE1=Just as I Am (outtake)
TTITLE2=Touch 'Em with Love (outtake)
TTITLE3=Put a Little Love in Your Heart (outtake)
TTITLE4=It's a Hang Up Baby (outtake)
EXTD=
EXTT0=
EXTT1=
EXTT2=
EXTT3=
EXTT4=
PLAYORDER=
